<svg width="48" height="48" xmlns="http://www.w3.org/2000/svg">
 <title>trophy-icon</title>

 <g>
  <title>background</title>
  <rect x="-1" y="-1" width="50" height="50" id="canvas_background" fill="#f8ac09"/>
 </g>
 <g>
  <title>Layer 1</title>
  <g stroke="null" id="svg_8">
   <g stroke="null" id="svg_9">
    <path stroke="null" fill="#ffffff" d="m28.88889,13.25l0,9.31667c0,2.76633 -2.19348,5.01667 -4.88889,5.01667s-4.88889,-2.25033 -4.88889,-5.01667l0,-9.31667l9.77778,0zm3.25926,-3.58333l-16.2963,0l0,12.9c0,4.74971 3.64711,8.6 8.14815,8.6s8.14815,-3.85029 8.14815,-8.6l0,-12.9z" id="svg_1"/>
    <path stroke="null" fill="#ffffff" d="m22.37037,29.375l3.25926,0l0,8.95833l-3.25926,0l0,-8.95833z" id="svg_2"/>
    <path stroke="null" fill="#ffffff" d="m19.11111,34.75l9.77778,0l0,3.58333l-9.77778,0l0,-3.58333z" id="svg_3"/>
    <path stroke="null" fill="#ffffff" d="m19.12252,25.79167l-1.62963,0c-6.116,0 -7.97052,-6.9875 -8.096,-10.68192l-0.06356,-1.85975l9.78919,0l0,12.54167zm-6.23985,-8.95833c0.32756,1.71463 1.11141,4.11904 2.98059,5.01846l0,-5.01846l-2.98059,0z" id="svg_4"/>
    <path stroke="null" fill="#ffffff" d="m28.87748,13.25l9.78919,0l-0.06356,1.85975c-0.12548,3.69442 -1.98,10.68192 -8.096,10.68192l-1.62963,0l0,-12.54167zm3.25926,3.58333l0,5.01846c1.86919,-0.89942 2.65304,-3.30383 2.98059,-5.01846l-2.98059,0z" id="svg_5"/>
   </g>
  </g>
 </g>
</svg>