<svg width="32" height="32" xmlns="http://www.w3.org/2000/svg">
 <title>trophy-icon</title>

 <g>
  <title>background</title>
  <rect x="-1" y="-1" width="34" height="34" id="canvas_background" fill="#f8ac09"/>
 </g>
 <g>
  <title>Layer 1</title>
  <g stroke="null" id="svg_8">
   <g stroke="null" id="svg_9">
    <path stroke="null" fill="#ffffff" d="m19.11111,9.49999l0,5.63334c0,1.67267 -1.39585,3.03334 -3.11111,3.03334s-3.11111,-1.36067 -3.11111,-3.03334l0,-5.63334l6.22223,0zm2.07408,-2.16667l-10.37038,0l0,7.80001c0,2.87192 2.32089,5.2 5.18519,5.2s5.18519,-2.32809 5.18519,-5.2l0,-7.80001z" id="svg_1"/>
    <path stroke="null" fill="#ffffff" d="m14.96296,19.25l2.07408,0l0,5.41667l-2.07408,0l0,-5.41667z" id="svg_2"/>
    <path stroke="null" fill="#ffffff" d="m12.88889,22.50001l6.22223,0l0,2.16667l-6.22223,0l0,-2.16667z" id="svg_3"/>
    <path stroke="null" fill="#ffffff" d="m12.89615,17.08333l-1.03704,0c-3.892,0 -5.07215,-4.225 -5.15201,-6.45884l-0.04044,-1.1245l6.22949,0l0,7.58334zm-3.97082,-5.41667c0.20844,1.03675 0.70726,2.49059 1.89674,3.03442l0,-3.03442l-1.89674,0z" id="svg_4"/>
    <path stroke="null" fill="#ffffff" d="m19.10386,9.49999l6.22949,0l-0.04044,1.1245c-0.07985,2.23384 -1.26,6.45884 -5.15201,6.45884l-1.03704,0l0,-7.58334zm2.07408,2.16667l0,3.03442c1.18948,-0.54383 1.6883,-1.99767 1.89674,-3.03442l-1.89674,0z" id="svg_5"/>
   </g>
  </g>
 </g>
</svg>