<svg width="96" height="96" xmlns="http://www.w3.org/2000/svg">
 <title>trophy-icon</title>

 <g>
  <title>background</title>
  <rect x="-1" y="-1" width="98" height="98" id="canvas_background" fill="#f8ac09"/>
 </g>
 <g>
  <title>Layer 1</title>
  <g stroke="null" id="svg_8">
   <g stroke="null" id="svg_9">
    <path stroke="null" fill="#ffffff" d="m59.77773,23.25011l0,21.44991c0,6.36897 -5.28427,11.54995 -11.77773,11.54995s-11.77773,-5.18098 -11.77773,-11.54995l0,-21.44991l23.55545,0zm7.85182,-8.24996l-39.25909,0l0,29.69987c0,10.93533 8.78618,19.79991 19.62954,19.79991s19.62954,-8.86459 19.62954,-19.79991l0,-29.69987z" id="svg_1"/>
    <path stroke="null" fill="#ffffff" d="m44.07409,60.37495l7.85182,0l0,20.62491l-7.85182,0l0,-20.62491z" id="svg_2"/>
    <path stroke="null" fill="#ffffff" d="m36.22227,72.74989l23.55545,0l0,8.24996l-23.55545,0l0,-8.24996z" id="svg_3"/>
    <path stroke="null" fill="#ffffff" d="m36.24975,52.12498l-3.92591,0c-14.73394,0 -19.20162,-16.08743 -19.50392,-24.59314l-0.15311,-4.28173l23.58293,0l0,28.87487zm-15.0323,-20.62491c0.78911,3.94761 2.67747,9.48333 7.18049,11.55407l0,-11.55407l-7.18049,0z" id="svg_4"/>
    <path stroke="null" fill="#ffffff" d="m59.75025,23.25011l23.58293,0l-0.15311,4.28173c-0.30229,8.50571 -4.76998,24.59314 -19.50392,24.59314l-3.92591,0l0,-28.87487zm7.85182,8.24996l0,11.55407c4.50302,-2.07074 6.39138,-7.60647 7.18049,-11.55407l-7.18049,0z" id="svg_5"/>
   </g>
  </g>
 </g>
</svg>